<?xml version="1.0" encoding="UTF-8" standalone="no"?>
<svg xmlns:dc="http://purl.org/dc/elements/1.1/" xmlns:cc="http://web.resource.org/cc/" xmlns:rdf="http://www.w3.org/1999/02/22-rdf-syntax-ns#" xmlns:svg="http://www.w3.org/2000/svg" xmlns="http://www.w3.org/2000/svg" xmlns:inkscape="http://www.inkscape.org/namespaces/inkscape" version="1.0" width="600" height="220" viewBox="-250 -60 350 185" font-family="DejaVu Sans,sans-serif" font-stretch="condensed" font-weight="normal" font-size="18px" id="Layer_1" xml:space="preserve">
  <metadata id="metadata2629">
    <rdf:RDF>
      <cc:Work rdf:about="">
        <dc:format>image/svg+xml</dc:format>
        <dc:type rdf:resource="http://purl.org/dc/dcmitype/StillImage" />
      </cc:Work>
    </rdf:RDF>
  </metadata>
  <g id="g2269" transform="matrix(3.2814561,0,0,3.2814561,-320.50159,327.26672)">
    <path d="M 146.732,-72.108 C 146.732,-68.796 144.047,-66.11 140.732,-66.11 L 8.625,-66.11 C 5.312,-66.11 2.625,-68.796 2.625,-72.108 L 2.625,-107.774 C 2.625,-111.088 5.312,-113.774 8.625,-113.774 L 140.733,-113.774 C 144.048,-113.774 146.733,-111.088 146.733,-107.774 L 146.733,-72.108 L 146.732,-72.108 z " style="fill:#ffffff;stroke:#000000;stroke-width:2" id="path2271" />
    <g id="g2273">
      <circle cx="36.09" cy="-95.511" r="2.24" style="fill:white;stroke:black" id="circle2275" />
      <circle cx="47.119" cy="-95.511" r="2.24" style="fill:white;stroke:black" id="circle2277" />
      <circle cx="58.146" cy="-95.511" r="2.24" style="fill:white;stroke:black" id="circle2279" />
      <circle cx="69.169" cy="-95.511" r="2.24" style="fill:white;stroke:black" id="circle2279" />
      <circle cx="91.219" cy="-95.511" r="2.24" style="fill:white;stroke:black" id="circle2295" />
      <circle cx="80.197" cy="-95.511" r="2.24" style="fill:white;stroke:black" id="circle2283" />
      <circle cx="102.244" cy="-95.511" r="2.24" style="fill:white;stroke:black" id="circle2293" />
      <circle cx="113.266" cy="-95.511" r="2.24" style="fill:white;stroke:black" id="circle2293" />

      <circle cx="41.604" cy="-84.371" r="2.24" style="fill:white;stroke:black" id="circle2285" />
      <circle cx="52.632" cy="-84.371" r="2.24" style="fill:white;stroke:black" id="circle2287" />
      <circle cx="63.656" cy="-84.371" r="2.24" style="fill:white;stroke:black" id="circle2289" />
      <circle cx="74.685" cy="-84.371" r="2.24" style="fill:white;stroke:black" id="circle2291" />
      <circle cx="85.706" cy="-84.371" r="2.24" style="fill:white;stroke:black" id="circle2303" />
      <circle cx="96.735" cy="-84.371" r="2.24" style="fill:white;stroke:black" id="circle2297" />
      <circle cx="107.752" cy="-84.371" r="2.24" style="fill:white;stroke:black" id="circle2301" />

    </g>
    <path d="M 35.714,-106.642 C 30.104,-106.642 26.314,-102.123 27.289,-96.599 L 29.643,-83.291 C 30.619,-77.766 36.008,-73.242 41.619,-73.242 L 107.739,-73.242 C 113.347,-73.242 118.736,-77.765 119.715,-83.291 L 122.069,-96.599 C 123.045,-102.124 119.256,-106.642 113.644,-106.642 L 35.714,-106.642 z " style="fill:none;stroke:#000000" id="path2305" />
    <g id="g2307">
      <circle cx="13.829" cy="-89.941002" r="5.0539999" style="fill:none;stroke:#000000" id="circle2309" />
      <circle cx="135.528" cy="-89.941002" r="5.0539999" style="fill:none;stroke:#000000" id="circle2311" />
    </g>
  </g>
  <text xml:space="preserve" x="-216" y="0" id="text2631">8</text>
  <text xml:space="preserve" x="55" y="0" id="text2639">1 </text>
  <text xml:space="preserve" x="-211" y="70" id="text2643">15</text>
  <text xml:space="preserve" x="40" y="70" id="text2647">9</text>
</svg>
